<svg width="62" height="62" viewBox="0 0 62 62" fill="none" xmlns="http://www.w3.org/2000/svg">
<path d="M54.25 15.5H49.0833L45.8025 12.2192C44.616 11.0314 43.0121 10.3546 41.3333 10.3333H34.875C34.5132 8.88356 33.6852 7.59274 32.5184 6.65929C31.3516 5.72585 29.9105 5.20143 28.4167 5.16666V21.5967C28.5494 24.2056 29.5808 26.6883 31.3358 28.6233C34.2255 31.4012 38.005 33.0668 42.005 33.325L50.9175 29.76C51.9632 29.3402 52.9048 28.6975 53.6766 27.8765C54.4485 27.0556 55.0321 26.0762 55.3867 25.0067L56.8333 21.0542C56.8726 20.7887 56.8726 20.5188 56.8333 20.2533V18.0833C56.8333 17.3982 56.5612 16.7411 56.0767 16.2566C55.5922 15.7722 54.9351 15.5 54.25 15.5ZM41.3333 20.6667C40.8224 20.6667 40.3229 20.5152 39.8981 20.2313C39.4733 19.9474 39.1422 19.544 38.9466 19.0719C38.7511 18.5999 38.7 18.0805 38.7996 17.5793C38.8993 17.0782 39.1454 16.6179 39.5066 16.2566C39.8679 15.8954 40.3282 15.6493 40.8293 15.5496C41.3305 15.45 41.8499 15.5011 42.3219 15.6966C42.794 15.8922 43.1974 16.2233 43.4813 16.6481C43.7652 17.0729 43.9167 17.5724 43.9167 18.0833C43.9167 18.7685 43.6445 19.4256 43.16 19.91C42.6756 20.3945 42.0185 20.6667 41.3333 20.6667Z" fill="#F2F2F2"/>
<path d="M29.3983 30.3283C27.5963 28.3547 26.4187 25.8918 26.0142 23.25H15.5C14.8097 23.2957 14.1176 23.1933 13.47 22.9498C12.8225 22.7063 12.2344 22.3273 11.7452 21.8381C11.256 21.3489 10.877 20.7609 10.6335 20.1133C10.39 19.4657 10.2877 18.7736 10.3333 18.0833C10.3333 17.3982 10.0612 16.7411 9.57669 16.2566C9.09222 15.7722 8.43514 15.5 7.75 15.5C7.06485 15.5 6.40777 15.7722 5.9233 16.2566C5.43884 16.7411 5.16666 17.3982 5.16666 18.0833C5.19261 19.8761 5.61613 21.6407 6.40666 23.25C7.27815 24.9398 8.64928 26.3199 10.3333 27.2025V56.8333H18.0833V43.9167H33.5833V56.8333H41.3333V35.8308C36.8268 35.4759 32.5948 33.5247 29.3983 30.3283Z" fill="#F2F2F2"/>
</svg>
