<svg width="62" height="62" viewBox="0 0 62 62" fill="none" xmlns="http://www.w3.org/2000/svg">
<path d="M31 7.75C18.1563 7.75 7.75 18.1563 7.75 31C7.75 43.8437 18.1563 54.25 31 54.25C43.8437 54.25 54.25 43.8437 54.25 31C54.25 30.0623 54.1822 29.14 54.0679 28.2216C53.266 28.7715 52.316 29.0647 51.3438 29.0625C50.3537 29.0604 49.3882 28.7546 48.5774 28.1864C47.7667 27.6182 47.1498 26.8149 46.81 25.885C45.5623 26.69 44.1099 27.1204 42.625 27.125C38.3431 27.125 34.875 23.6569 34.875 19.375C34.875 17.9529 35.2819 16.6354 35.9581 15.4845C35.9206 15.4934 35.8823 15.4986 35.8438 15.5C35.2074 15.5008 34.5772 15.376 33.9892 15.1328C33.4012 14.8897 32.8669 14.5329 32.417 14.083C31.9671 13.6331 31.6103 13.0988 31.3672 12.5108C31.124 11.9228 30.9992 11.2926 31 10.6562C31 9.57319 31.3643 8.59087 31.961 7.78875C31.6433 7.77325 31.3255 7.75 31 7.75ZM45.5312 7.75C45.1496 7.75 44.7717 7.82517 44.4191 7.97122C44.0665 8.11728 43.7461 8.33135 43.4762 8.60122C43.2064 8.87109 42.9923 9.19147 42.8462 9.54408C42.7002 9.89668 42.625 10.2746 42.625 10.6562C42.625 11.0379 42.7002 11.4158 42.8462 11.7684C42.9923 12.121 43.2064 12.4414 43.4762 12.7113C43.7461 12.9811 44.0665 13.1952 44.4191 13.3413C44.7717 13.4873 45.1496 13.5625 45.5312 13.5625C46.302 13.5625 47.0413 13.2563 47.5863 12.7113C48.1313 12.1663 48.4375 11.427 48.4375 10.6562C48.4375 9.88546 48.1313 9.14625 47.5863 8.60122C47.0413 8.05619 46.302 7.75 45.5312 7.75V7.75ZM27.2219 11.9893C27.4134 13.2006 27.8567 14.3583 28.5231 15.3878C29.1896 16.4173 30.0643 17.2957 31.0911 17.9664C31.0303 18.4335 30.9999 18.904 31 19.375C31 25.7862 36.2138 31 42.625 31C43.586 31 44.547 30.8779 45.4712 30.6358C46.8046 31.8633 48.4863 32.6466 50.2839 32.8774C49.3384 42.6831 41.0518 50.375 31 50.375C20.3128 50.375 11.625 41.6872 11.625 31C11.625 21.607 18.3462 13.7524 27.2219 11.9873V11.9893ZM42.625 17.4375C41.5594 17.4375 40.6875 18.3094 40.6875 19.375C40.6875 20.4406 41.5594 21.3125 42.625 21.3125C43.6906 21.3125 44.5625 20.4406 44.5625 19.375C44.5625 18.3094 43.6906 17.4375 42.625 17.4375ZM27.125 19.375C26.0594 19.375 25.1875 20.2469 25.1875 21.3125C25.1875 22.3781 26.0594 23.25 27.125 23.25C28.1906 23.25 29.0625 22.3781 29.0625 21.3125C29.0625 20.2469 28.1906 19.375 27.125 19.375ZM52.3125 19.375C51.2469 19.375 50.375 20.2469 50.375 21.3125C50.375 22.3781 51.2469 23.25 52.3125 23.25C53.3781 23.25 54.25 22.3781 54.25 21.3125C54.25 20.2469 53.3781 19.375 52.3125 19.375ZM21.3125 25.1875C20.2848 25.1875 19.2992 25.5958 18.5725 26.3225C17.8458 27.0492 17.4375 28.0348 17.4375 29.0625C17.4375 30.0902 17.8458 31.0758 18.5725 31.8025C19.2992 32.5292 20.2848 32.9375 21.3125 32.9375C22.3402 32.9375 23.3258 32.5292 24.0525 31.8025C24.7792 31.0758 25.1875 30.0902 25.1875 29.0625C25.1875 28.0348 24.7792 27.0492 24.0525 26.3225C23.3258 25.5958 22.3402 25.1875 21.3125 25.1875V25.1875ZM31 29.0625C29.9344 29.0625 29.0625 29.9344 29.0625 31C29.0625 32.0656 29.9344 32.9375 31 32.9375C32.0656 32.9375 32.9375 32.0656 32.9375 31C32.9375 29.9344 32.0656 29.0625 31 29.0625ZM24.2188 36.8125C23.448 36.8125 22.7087 37.1187 22.1637 37.6637C21.6187 38.2087 21.3125 38.948 21.3125 39.7188C21.3125 40.4895 21.6187 41.2288 22.1637 41.7738C22.7087 42.3188 23.448 42.625 24.2188 42.625C24.9895 42.625 25.7288 42.3188 26.2738 41.7738C26.8188 41.2288 27.125 40.4895 27.125 39.7188C27.125 38.948 26.8188 38.2087 26.2738 37.6637C25.7288 37.1187 24.9895 36.8125 24.2188 36.8125V36.8125ZM37.7812 38.75C37.0105 38.75 36.2712 39.0562 35.7262 39.6012C35.1812 40.1462 34.875 40.8855 34.875 41.6562C34.875 42.427 35.1812 43.1663 35.7262 43.7113C36.2712 44.2563 37.0105 44.5625 37.7812 44.5625C38.552 44.5625 39.2913 44.2563 39.8363 43.7113C40.3813 43.1663 40.6875 42.427 40.6875 41.6562C40.6875 40.8855 40.3813 40.1462 39.8363 39.6012C39.2913 39.0562 38.552 38.75 37.7812 38.75Z" fill="black"/>
</svg>
