<svg width="62" height="62" viewBox="0 0 62 62" fill="none" xmlns="http://www.w3.org/2000/svg">
<path d="M21.3125 8.71875C21.3125 7.43411 21.8228 6.20208 22.7312 5.2937C23.6396 4.38532 24.8716 3.875 26.1562 3.875H35.8437C36.9791 3.87485 38.0784 4.27352 38.9498 5.00141C39.8211 5.72929 40.409 6.74013 40.6109 7.85739C40.8128 8.97464 40.6159 10.1273 40.0544 11.1141C39.4929 12.1009 38.6027 12.8592 37.5391 13.2564C37.9266 15.2229 39.2441 16.8485 41.2358 18.8209C43.4978 20.46 45.3324 22.6192 46.5848 25.1162C47.8372 27.6132 48.4706 30.3748 48.4317 33.1681V33.2204L48.4336 33.325V50.375C48.4334 51.835 48.0208 53.2653 47.2434 54.5011C46.4659 55.7369 45.3551 56.7279 44.039 57.36C42.723 57.9921 41.2551 58.2396 39.8045 58.074C38.3539 57.9084 36.9796 57.3364 35.8399 56.4239C34.4667 57.527 32.7575 58.1272 30.9961 58.125C29.2347 58.1272 27.5256 57.527 26.1524 56.4239C25.0126 57.3364 23.6383 57.9084 22.1878 58.074C20.7372 58.2396 19.2693 57.9921 17.9532 57.36C16.6371 56.7279 15.5264 55.7369 14.7489 54.5011C13.9714 53.2653 13.5588 51.835 13.5586 50.375V32.9356C13.5532 28.7484 15.0599 24.7 17.8017 21.5353C18.4613 20.7717 19.1861 20.0671 19.9679 19.4292C22.3219 17.1508 23.8894 15.3993 24.2982 13.1944C23.4138 12.827 22.6582 12.2058 22.1268 11.4092C21.5954 10.6126 21.312 9.67635 21.3125 8.71875ZM26.1562 7.75C25.8993 7.75 25.6529 7.85206 25.4712 8.03374C25.2896 8.21542 25.1875 8.46182 25.1875 8.71875C25.1875 8.97568 25.2896 9.22208 25.4712 9.40376C25.6529 9.58544 25.8993 9.6875 26.1562 9.6875H35.8437C36.1007 9.6875 36.3471 9.58544 36.5288 9.40376C36.7104 9.22208 36.8125 8.97568 36.8125 8.71875C36.8125 8.46182 36.7104 8.21542 36.5288 8.03374C36.3471 7.85206 36.1007 7.75 35.8437 7.75H26.1562ZM23.5813 21.3125H38.2462C36.27 19.3324 34.3189 17.0461 33.728 13.95H28.0976C27.5086 17.0326 25.5672 19.3266 23.5832 21.3125H23.5813ZM17.4336 50.375C17.4336 51.2075 17.7018 52.0179 18.1983 52.6862C18.6949 53.3544 19.3935 53.8449 20.1906 54.0851C20.9877 54.3253 21.841 54.3024 22.6241 54.0198C23.4072 53.7372 24.0784 53.2099 24.5384 52.5159C24.7152 52.2498 24.9551 52.0315 25.2367 51.8804C25.5183 51.7294 25.8328 51.6504 26.1524 51.6504C26.4719 51.6504 26.7865 51.7294 27.0681 51.8804C27.3497 52.0315 27.5895 52.2498 27.7663 52.5159C28.1191 53.0499 28.5988 53.4881 29.1625 53.7912C29.7261 54.0944 30.3561 54.2531 30.9961 54.2531C31.6361 54.2531 32.2661 54.0944 32.8298 53.7912C33.3934 53.4881 33.8731 53.0499 34.2259 52.5159C34.4027 52.2498 34.6426 52.0315 34.9242 51.8804C35.2058 51.7294 35.5203 51.6504 35.8399 51.6504C36.1594 51.6504 36.474 51.7294 36.7556 51.8804C37.0372 52.0315 37.277 52.2498 37.4538 52.5159C37.9138 53.2099 38.585 53.7372 39.3681 54.0198C40.1512 54.3024 41.0045 54.3253 41.8016 54.0851C42.5988 53.8449 43.2973 53.3544 43.7939 52.6862C44.2905 52.0179 44.5586 51.2075 44.5586 50.375V46.5H17.4336V50.375Z" fill="black"/>
</svg>
