<svg width="62" height="62" viewBox="0 0 62 62" fill="none" xmlns="http://www.w3.org/2000/svg">
<path d="M52.5419 23.1632C45.7963 32.1594 39.8474 32.4694 30.6993 32.9344H30.3862C19.2541 32.9282 11.3584 28.7928 11.3584 27.2552C11.3522 25.7951 18.4822 21.9945 28.7339 21.6163L30.5629 17.05L30.3862 17.0438C15.1714 17.0438 6.23413 21.886 6.23413 26.5019V32.7019C6.23413 35.5477 8.03833 60.4438 29.7383 60.4438C51.4383 60.4438 54.5383 35.5477 54.5383 32.7019V26.5019C54.5383 25.2898 53.9152 24.0622 52.7279 22.9121L52.5419 23.1632V23.1632ZM54.5259 8.3762C53.868 7.8842 53.0417 7.67348 52.2285 7.79031C51.4154 7.90714 50.6818 8.34198 50.189 8.9993L39.0042 23.9072L46.2458 5.8094C46.4044 5.43 46.4859 5.02285 46.4855 4.61165C46.4852 4.20046 46.4031 3.79344 46.244 3.41429C46.0848 3.03514 45.8518 2.69144 45.5586 2.4032C45.2653 2.11496 44.9176 1.88795 44.5358 1.73537C44.1539 1.5828 43.7456 1.50772 43.3344 1.5145C42.9233 1.52128 42.5176 1.60979 42.141 1.77487C41.7644 1.93995 41.4244 2.17831 41.1408 2.47606C40.8572 2.77381 40.6357 3.12501 40.4891 3.5092L30.3862 28.7494C39.3204 28.2937 43.6449 28.0457 49.1939 20.6553L55.1428 12.7162C55.6365 12.0588 55.8488 11.2323 55.7331 10.4185C55.6174 9.60457 55.1832 8.86996 54.5259 8.3762V8.3762Z" fill="black"/>
</svg>
