<svg width="62" height="62" viewBox="0 0 62 62" fill="none" xmlns="http://www.w3.org/2000/svg">
<g clip-path="url(#clip0_8_13)">
<path d="M9.56641 11.625H25.3086C26.0312 11.625 26.6854 11.213 26.9736 10.5761C27.2624 9.93889 27.1309 9.19683 26.6401 8.68824L18.769 0.533782C18.0808 -0.17837 16.794 -0.17837 16.1062 0.533782L8.2351 8.68824C7.74394 9.19707 7.61316 9.93938 7.90137 10.5763C8.18957 11.2133 8.84348 11.625 9.56641 11.625ZM43.2305 11.091C43.919 11.8031 45.2055 11.8031 45.8933 11.091L53.7644 2.93652C54.2552 2.42805 54.3865 1.68684 54.0979 1.04867C53.8141 0.411962 53.0512 1.13389e-06 52.4336 1.13389e-06H36.6914C35.9688 1.13389e-06 35.3146 0.411962 35.0264 1.04892C34.7376 1.68611 34.8688 2.42817 35.3596 2.93677L43.2305 11.091ZM54.25 15.5H7.75C3.46934 15.5 0 18.9693 0 23.141V54.032C0 58.5246 3.46934 62 7.75 62H54.25C58.5307 62 62 58.5307 62 54.359V23.25C62 18.9754 58.5246 15.5 54.25 15.5ZM42.625 27.125C45.834 27.1371 48.4375 29.7285 48.4375 32.9375C48.4375 36.1416 45.8376 38.7379 42.625 38.75C39.416 38.7379 36.8125 36.1465 36.8125 32.9375C36.8125 29.7285 39.416 27.1371 42.625 27.125ZM19.375 27.125C22.584 27.1371 25.1875 29.7285 25.1875 32.9375C25.1875 36.1416 22.5876 38.7379 19.375 38.75C16.166 38.7379 13.5625 36.1465 13.5625 32.9375C13.5625 29.7285 16.166 27.1371 19.375 27.125ZM29.0625 54.25H9.6875V48.4375C9.6875 45.2285 12.291 42.625 15.5 42.625H23.25C26.4602 42.625 29.0625 45.2273 29.0625 48.4375V54.25ZM52.3125 54.25H32.9375V48.4375C32.9375 45.2273 35.5398 42.625 38.75 42.625H46.5C49.7102 42.625 52.3125 45.2273 52.3125 48.4375V54.25Z" fill="black"/>
</g>
<defs>
<clipPath id="clip0_8_13">
<rect width="62" height="62" fill="white"/>
</clipPath>
</defs>
</svg>
