<svg width="62" height="62" viewBox="0 0 62 62" fill="none" xmlns="http://www.w3.org/2000/svg">
<path d="M33.9062 19.375V29.3289L42.5281 34.2938C43.1916 34.6834 43.6752 35.3183 43.8746 36.0614C44.074 36.8045 43.9731 37.5962 43.5937 38.2656C43.3348 38.7045 42.9668 39.0689 42.5255 39.3235C42.0842 39.5781 41.5845 39.7143 41.075 39.7188C40.5646 39.7228 40.0625 39.5889 39.6219 39.3313L29.5469 33.5188L29.4742 33.4703L29.3289 33.3734L29.232 33.3008L29.1109 33.2039L28.9898 33.107L28.9172 33.0102L28.7961 32.8891L28.7234 32.8164L28.6265 32.6711L28.5539 32.5742L28.4812 32.4531L28.4086 32.332L28.3601 32.2109L28.2875 32.0656C28.2875 32.0172 28.2633 31.993 28.2633 31.9445C28.2362 31.9004 28.2197 31.8507 28.2148 31.7992L28.1664 31.6781C28.1664 31.6297 28.1422 31.5813 28.1422 31.5328C28.1422 31.4844 28.118 31.4359 28.118 31.3875V31.2422C28.0965 31.1884 28.0882 31.1303 28.0937 31.0727V19.375C28.0937 18.6042 28.3999 17.865 28.945 17.32C29.49 16.7749 30.2292 16.4688 31 16.4688C31.7708 16.4688 32.51 16.7749 33.055 17.32C33.6 17.865 33.9062 18.6042 33.9062 19.375ZM54.8555 27.0039L55.0008 26.9555H55.1461L55.2672 26.907L55.4125 26.8586L55.5336 26.8102L55.6547 26.7375L55.7758 26.6648L55.8969 26.5922L56.018 26.4953L56.139 26.4227C56.2153 26.3709 56.2811 26.3052 56.3328 26.2289H56.357L56.5265 26.0109L56.6234 25.9141L56.6961 25.793L56.793 25.6719L56.8414 25.5508L56.914 25.4055L56.9867 25.2844C56.9884 25.2396 57.0055 25.1968 57.0351 25.1633C57.0351 25.1148 57.0594 25.0664 57.0594 25.018C57.0594 24.9695 57.0836 24.9211 57.1078 24.8969C57.132 24.8727 57.132 24.8 57.132 24.7516C57.1501 24.6969 57.1583 24.6395 57.1562 24.582C57.1758 24.5448 57.1842 24.5028 57.1805 24.4609C57.1805 24.3641 57.2047 24.2672 57.2047 24.1703V14.4828C57.2047 13.712 56.8985 12.9728 56.3535 12.4278C55.8084 11.8828 55.0692 11.5766 54.2984 11.5766C53.5276 11.5766 52.7884 11.8828 52.2434 12.4278C51.6984 12.9728 51.3922 13.712 51.3922 14.4828V17.1469L48.1226 13.8773C44.7359 10.4896 40.4205 8.18222 35.7223 7.24714C31.0242 6.31207 26.1542 6.79125 21.7284 8.6241C17.3026 10.4569 13.5197 13.5611 10.8582 17.544C8.19665 21.5269 6.77606 26.2097 6.77606 31C6.77606 35.7903 8.19665 40.4731 10.8582 44.456C13.5197 48.4389 17.3026 51.5431 21.7284 53.3759C26.1542 55.2088 31.0242 55.6879 35.7223 54.7529C40.4205 53.8178 44.7359 51.5104 48.1226 48.1227C48.3936 47.8527 48.6086 47.5318 48.7552 47.1786C48.9019 46.8253 48.9774 46.4466 48.9774 46.0641C48.9774 45.6816 48.9019 45.3028 48.7552 44.9496C48.6086 44.5963 48.3936 44.2755 48.1226 44.0055C47.5712 43.4699 46.8328 43.1703 46.064 43.1703C45.2953 43.1703 44.5569 43.4699 44.0055 44.0055C41.4338 46.5741 38.1584 48.3228 34.5933 49.0304C31.0281 49.7379 27.3331 49.3727 23.9755 47.9808C20.6178 46.5889 17.7482 44.2328 15.7293 41.2103C13.7103 38.1879 12.6328 34.6347 12.6328 31C12.6328 27.3653 13.7103 23.8121 15.7293 20.7897C17.7482 17.7672 20.6178 15.4111 23.9755 14.0192C27.3331 12.6273 31.0281 12.2621 34.5933 12.9696C38.1584 13.6772 41.4338 15.4259 44.0055 17.9945L47.275 21.2398H44.6109C43.8401 21.2398 43.1009 21.546 42.5559 22.0911C42.0109 22.6361 41.7047 23.3753 41.7047 24.1461C41.7047 24.9169 42.0109 25.6561 42.5559 26.2011C43.1009 26.7462 43.8401 27.0523 44.6109 27.0523H54.8555V27.0039Z" fill="black"/>
</svg>
