<svg width="62" height="62" viewBox="0 0 62 62" fill="none" xmlns="http://www.w3.org/2000/svg">
<path d="M33.5833 5.29583V10.5142C43.7875 11.78 51.6666 20.46 51.6666 31C51.6666 39.2925 46.7066 46.5 39.4733 49.8067L33.5833 43.9167V56.8333H46.5L43.3483 53.6817C51.4341 49.2642 56.8333 40.7133 56.8333 31C56.8333 17.6183 46.6291 6.5875 33.5833 5.29583V5.29583ZM28.4166 5.16667C23.3791 5.68333 18.6 7.64667 14.6733 10.8758L18.3416 14.5442C21.274 12.2837 24.7479 10.8318 28.4166 10.3333V5.16667ZM10.85 14.6733C7.64663 18.6 5.68329 23.3792 5.16663 28.4167H10.3333C10.8241 24.7483 12.2708 21.2608 14.5441 18.3417L10.85 14.6733ZM15.5 20.6667V25.8333H23.25V28.4167H20.6666C17.825 28.4167 15.5 30.7417 15.5 33.5833V41.3333H28.4166V36.1667H20.6666V33.5833H23.25C26.1175 33.5833 28.4166 31.2842 28.4166 28.4167V25.8333C28.4166 24.463 27.8723 23.1489 26.9033 22.18C25.9344 21.211 24.6202 20.6667 23.25 20.6667H15.5ZM31 20.6667V33.5833H38.75V41.3333H43.9166V33.5833H46.5V28.4167H43.9166V20.6667H38.75V28.4167H36.1666V20.6667H31ZM5.16663 33.5833C5.68329 38.6208 7.67246 43.4 10.9016 47.3267L14.57 43.6583C12.3018 40.7278 10.8411 37.2541 10.3333 33.5833H5.16663ZM18.3675 47.4558L14.6733 51.1242C18.5984 54.3289 23.3762 56.3136 28.4166 56.8333V51.6667C24.7526 51.1795 21.2842 49.7262 18.3675 47.4558V47.4558Z" fill="black"/>
</svg>
