<svg width="62" height="62" viewBox="0 0 62 62" fill="none" xmlns="http://www.w3.org/2000/svg">
<path d="M27.0058 21.7165L25.5527 20.2876L24.0995 21.7165L25.5527 23.1463L27.0058 21.7165ZM23.6568 16.925L22.6881 17.8754L23.6568 18.8306L24.6256 17.8754L23.6568 16.925ZM27.4185 20.0202L28.3872 20.9744L29.356 20.0202L28.3872 19.0689L27.4185 20.0202ZM26.037 25.3793L27.0058 26.3345L27.9745 25.3793L27.0058 24.429L26.037 25.3793ZM20.6479 22.6697L19.6791 23.623L20.6479 24.5753L21.6166 23.623L20.6479 22.6697ZM27.9745 18.352L27.4902 17.8773L27.0058 18.352L27.4902 18.8306L27.9745 18.352ZM20.9114 15.6124L20.427 15.1377L19.9426 15.6124L20.427 16.0909L20.9114 15.6124ZM20.427 16.9231L19.9426 16.4484L19.4583 16.9231L19.9426 17.4007L20.427 16.9231ZM27.9028 23.1463L28.3872 23.623L28.8716 23.1463L28.3872 22.6697L27.9028 23.1463ZM21.1323 25.0519L21.6166 25.5285L22.101 25.0519L21.6166 24.5753L21.1323 25.0519ZM25.5527 27.5755L26.037 28.054L26.5214 27.5755L26.037 27.1008L25.5527 27.5755ZM48.8269 23.6675L50.28 22.2367L48.8269 20.8088L47.3738 22.2367L48.8269 23.6675ZM47.8978 18.3966L46.9291 17.4443L45.9603 18.3966L46.9291 19.3498L47.8978 18.3966ZM40.4511 15.8565L41.4198 16.8098L42.3886 15.8565L41.4198 14.9033L40.4511 15.8565ZM45.5108 28.0521L44.5421 27.1008L43.5733 28.0521L44.5421 29.0063L45.5108 28.0521ZM51.6595 21.4937L52.6282 20.5404L51.6595 19.5881L50.6907 20.5404L51.6595 21.4937ZM45.9778 21.4782L45.009 20.5259L44.0403 21.4782L45.009 22.4314L45.9778 21.4782ZM51.2488 18.8732L50.7644 18.3966L50.28 18.8732L50.7644 19.3498L51.2488 18.8732ZM47.4135 15.3799L46.9291 14.9033L46.4447 15.3799L46.9291 15.8565L47.4135 15.3799ZM51.1751 23.6656L51.6595 24.1442L52.1439 23.6656L51.6595 23.1909L51.1751 23.6656ZM45.5108 26.1282L45.9952 26.6058L46.4796 26.1282L45.9952 25.6525L45.5108 26.1282ZM41.4198 18.5051L41.9042 18.9807L42.3886 18.5051L41.9042 18.0284L41.4198 18.5051ZM46.8894 28.303L47.3738 28.7816L47.8581 28.303L47.3738 27.8293L46.8894 28.303ZM34.686 6.95272L33.7173 6.00044L32.7485 6.95272L33.7173 7.90597L34.686 6.95272ZM34.8333 10.7531L35.802 9.80085L34.8333 8.8476L33.8645 9.80085L34.8333 10.7531ZM31.7798 13.0171L32.7485 13.9694L33.7173 13.0171L32.7485 12.0638L31.7798 13.0171ZM36.237 6.34241L35.7526 5.86869L35.2682 6.34241L35.7526 6.82097L36.237 6.34241ZM38.6666 8.339L38.1823 7.86528L37.6979 8.339L38.1823 8.81853L38.6666 8.339ZM33.2329 8.8166L32.7485 8.34094L32.2642 8.8166L32.7485 9.29419L33.2329 8.8166ZM31.2954 11.2298L31.7798 11.7064L32.2642 11.2298L31.7798 10.7531L31.2954 11.2298ZM28.8716 6.00044L28.3872 5.52381L27.9028 6.00044L28.3872 6.47706L28.8716 6.00044ZM31.7798 5.04719L31.2954 4.57056L30.811 5.04719L31.2954 5.52381L31.7798 5.04719Z" fill="black"/>
<path d="M60.0625 25.6012C60.0625 21.5615 57.971 18.5477 54.4331 16.3854C52.1643 14.0391 49.1001 12.3932 45.6368 11.8275C43.5695 6.08956 37.8016 1.9375 31 1.9375C24.3166 1.9375 18.631 5.94425 16.4707 11.5262C14.2552 9.0365 12.183 6.69503 11.7936 6.21259C10.8684 5.06269 8.78559 3.07869 6.22131 3.07869C0.452406 3.07869 0.569625 6.86553 6.22131 7.12225C7.83912 7.19588 10.6068 9.79116 13.2012 12.6722C11.0681 13.4849 9.13991 14.7569 7.55334 16.398C4.02516 18.5583 1.9375 21.5673 1.9375 25.6012C1.9375 39.7507 13.7359 47.5666 28.7215 48.2825C28.3243 49.7753 27.8554 51.0958 27.3062 52.1575C21.3735 52.6244 17.0054 54.1822 17.0054 56.0373C17.0064 58.2616 23.2723 60.0625 31 60.0625C38.7297 60.0625 44.9936 58.2616 44.9936 56.0373C44.9936 54.1832 40.6342 52.6264 34.7084 52.1594C34.1697 51.0996 33.7086 49.7783 33.3153 48.2806C48.2825 47.554 60.0625 39.7391 60.0625 25.6012ZM56.4878 25.4132C54.5639 30.6958 44.6206 33.1652 32.4212 33.3415C33.729 31.2131 34.4972 28.7573 34.4972 26.1282C34.4972 23.344 33.6437 20.7497 32.1906 18.537C34.6638 15.4874 38.5747 13.5044 42.9834 13.5044C50.1919 13.5034 56.0868 18.785 56.4878 25.4132V25.4132ZM31 3.84303C36.6255 3.84303 41.4538 7.06025 43.4959 11.6221C43.3235 11.6172 43.1549 11.5979 42.9825 11.5979C38.1552 11.5979 33.8472 13.6923 31.0087 16.9541C28.1674 13.6884 23.8487 11.5979 19.0175 11.5979C18.8519 11.5979 18.6901 11.6163 18.5254 11.6211C20.5675 7.06219 25.3783 3.84303 31 3.84303ZM5.51219 25.4132C5.91325 18.785 11.8081 13.5044 19.0166 13.5044C26.4837 13.5044 32.5587 19.1677 32.5587 26.1282C32.5587 28.8126 31.6491 31.2984 30.1107 33.3463C17.6719 33.2349 7.46422 30.7723 5.51219 25.4132V25.4132ZM37.6204 37.48C33.4916 37.7919 29.3386 37.7318 25.2408 37.2358C21.1439 36.7495 17.0917 35.8622 13.2486 34.441C17.298 35.0959 21.328 35.5512 25.3696 35.7537C29.4074 35.9397 33.4509 35.9183 37.4635 35.5812C41.477 35.2703 45.4731 34.6735 49.3501 33.665C51.2759 33.1361 53.1931 32.5258 54.9678 31.6384C55.8591 31.2054 56.7048 30.6861 57.4488 30.0458C58.1754 29.4074 58.8128 28.5927 58.9281 27.5764C59.0269 28.5994 58.5096 29.6234 57.8324 30.411C57.1514 31.2131 56.3134 31.8641 55.4445 32.4425C53.6852 33.5759 51.7584 34.4081 49.7947 35.0804C45.8568 36.4269 41.7415 37.1225 37.6204 37.48Z" fill="black"/>
</svg>
