<svg width="41" height="62" viewBox="0 0 41 62" fill="none" xmlns="http://www.w3.org/2000/svg">
<g clip-path="url(#clip0_8_10)">
<path d="M39.5144 14.7377C39.4297 14.4836 39.2815 14.0813 39.0697 13.5307C38.858 12.9802 38.7098 12.6202 38.6251 12.4508C36.8464 8.30055 34.2419 5.23019 30.8115 3.23976C27.3812 1.24932 23.8026 0.254101 20.0759 0.254101C15.248 0.254101 10.886 1.84222 6.98981 5.01844C3.09363 8.19467 0.806746 12.6626 0.12915 18.4221V20.8361L0.2562 21.4713V22.3607C0.425598 23.7158 0.870271 25.2616 1.59022 26.998C2.31016 28.7343 2.96658 30.1318 3.55948 31.1906C4.15237 32.2493 5.10524 33.8586 6.41808 36.0184C7.73093 38.1783 8.5991 39.597 9.02259 40.2746C11.4789 44.4249 15.248 50.5656 20.33 58.6967C21.0076 57.5956 23.3368 53.6148 27.3177 46.7541C27.4871 46.5 27.8047 45.9918 28.2705 45.2295C28.7364 44.4672 29.054 43.8743 29.2234 43.4508C29.3928 43.1967 29.6681 42.8368 30.0492 42.3709C30.4304 41.9051 30.7057 41.5451 30.8751 41.291C31.4679 40.1899 32.7596 38.0936 34.7501 35.0021C36.7405 31.9105 38.2016 29.306 39.1332 27.1885C40.0649 25.071 40.5308 22.9959 40.5308 20.9631V18.168C40.5308 17.2363 40.192 16.0929 39.5144 14.7377ZM20.2029 27.3156C16.8996 27.3156 14.6128 25.7063 13.3423 22.4877C13.2576 22.0642 13.2152 21.429 13.2152 20.582V18.9303C13.2152 16.8128 13.9352 15.1824 15.3751 14.0389C16.8149 12.8955 18.5089 12.3238 20.457 12.3238C22.5745 12.3238 24.332 13.0437 25.7296 14.4836C27.1271 15.9235 27.8259 17.7022 27.8259 19.8197C27.8259 21.9372 27.0848 23.7158 25.6025 25.1557C24.1203 26.5956 22.3204 27.3156 20.2029 27.3156Z" fill="black"/>
</g>
<defs>
<clipPath id="clip0_8_10">
<rect width="40.66" height="62" fill="white"/>
</clipPath>
</defs>
</svg>
