<svg width="62" height="62" viewBox="0 0 62 62" fill="none" xmlns="http://www.w3.org/2000/svg">
<path d="M31 21.7C33.0555 21.7 35.0267 20.8835 36.4801 19.4301C37.9335 17.9767 38.75 16.0054 38.75 13.95C38.75 11.8946 37.9335 9.92333 36.4801 8.46992C35.0267 7.01652 33.0555 6.2 31 6.2C28.9446 6.2 26.9734 7.01652 25.5199 8.46992C24.0665 9.92333 23.25 11.8946 23.25 13.95C23.25 16.0054 24.0665 17.9767 25.5199 19.4301C26.9734 20.8835 28.9446 21.7 31 21.7V21.7ZM24.8 24.8C23.1557 24.8 21.5787 25.4532 20.416 26.6159C19.2532 27.7787 18.6 29.3557 18.6 31V32.55C18.6 32.9611 18.7633 33.3553 19.054 33.646C19.3447 33.9367 19.7389 34.1 20.15 34.1H41.85C42.2611 34.1 42.6554 33.9367 42.946 33.646C43.2367 33.3553 43.4 32.9611 43.4 32.55V31C43.4 29.3557 42.7468 27.7787 41.5841 26.6159C40.4214 25.4532 38.8444 24.8 37.2 24.8H24.8ZM17.05 42.625C17.05 43.2416 16.8051 43.833 16.369 44.269C15.933 44.705 15.3417 44.95 14.725 44.95C14.1084 44.95 13.517 44.705 13.081 44.269C12.645 43.833 12.4 43.2416 12.4 42.625C12.4 42.0084 12.645 41.417 13.081 40.981C13.517 40.545 14.1084 40.3 14.725 40.3C15.3417 40.3 15.933 40.545 16.369 40.981C16.8051 41.417 17.05 42.0084 17.05 42.625ZM14.725 54.25C15.3417 54.25 15.933 54.005 16.369 53.569C16.8051 53.133 17.05 52.5416 17.05 51.925C17.05 51.3084 16.8051 50.717 16.369 50.281C15.933 49.845 15.3417 49.6 14.725 49.6C14.1084 49.6 13.517 49.845 13.081 50.281C12.645 50.717 12.4 51.3084 12.4 51.925C12.4 52.5416 12.645 53.133 13.081 53.569C13.517 54.005 14.1084 54.25 14.725 54.25ZM39.6831 43.152C39.1065 44.0944 38.75 45.5266 38.75 47.275C38.75 49.0234 39.1065 50.4556 39.6831 51.398C40.2225 52.2722 40.9231 52.7 41.85 52.7C42.78 52.7 43.4775 52.2722 44.0169 51.398C44.5935 50.4556 44.95 49.0234 44.95 47.275C44.95 45.5266 44.5935 44.0944 44.0169 43.152C43.4775 42.2778 42.7769 41.85 41.85 41.85C40.92 41.85 40.2225 42.2778 39.6831 43.152V43.152ZM37.0419 41.5307C38.0525 39.8846 39.6769 38.75 41.85 38.75C44.02 38.75 45.6475 39.8846 46.6581 41.5307C47.6315 43.1179 48.05 45.1732 48.05 47.275C48.05 49.3768 47.6315 51.4321 46.6581 53.0193C45.6475 54.6654 44.0231 55.8 41.85 55.8C39.68 55.8 38.0525 54.6654 37.0419 53.0193C36.0685 51.4321 35.65 49.3768 35.65 47.275C35.65 45.1732 36.0685 43.1179 37.0419 41.5307V41.5307ZM24.2265 43.1024C25.6308 41.9647 26.7778 41.7663 27.5466 41.8779C27.8935 41.9213 28.2256 42.0447 28.5166 42.2384C28.8076 42.4321 29.0497 42.6907 29.2237 42.9939C29.5213 43.5333 29.5089 44.0789 29.2454 44.5005C28.9788 44.9283 28.241 45.5607 26.4182 45.7498C26.0328 45.7897 25.6764 45.9726 25.4191 46.2622C25.1618 46.5519 25.0223 46.9275 25.0282 47.3149C25.034 47.7023 25.1847 48.0735 25.4506 48.3553C25.7165 48.6371 26.0783 48.8091 26.4647 48.8374C28.2813 48.9738 28.9974 49.5845 29.2485 49.9844C29.5027 50.3874 29.5275 50.9423 29.2175 51.5096C29.0439 51.8215 28.801 52.0893 28.5076 52.2925C28.2141 52.4956 27.8779 52.6287 27.5249 52.6814C26.7592 52.8023 25.6246 52.6194 24.2265 51.4848C24.0684 51.3566 23.8865 51.2607 23.6913 51.2028C23.4961 51.1448 23.2914 51.1259 23.0889 51.1471C22.8864 51.1682 22.69 51.229 22.511 51.3261C22.332 51.4231 22.1739 51.5545 22.0457 51.7126C21.9174 51.8708 21.8216 52.0527 21.7637 52.2479C21.7057 52.4431 21.6868 52.6478 21.7079 52.8503C21.7291 53.0528 21.7899 53.2491 21.887 53.4281C21.984 53.6071 22.1154 53.7653 22.2735 53.8935C24.2048 55.459 26.2043 56.0294 28.0085 55.7411C28.8319 55.6149 29.6152 55.301 30.2979 54.8237C30.9806 54.3463 31.5443 53.7183 31.9455 52.9883C32.6895 51.615 32.8259 49.8449 31.8711 48.3321C31.6121 47.9233 31.291 47.5572 30.9194 47.2471C31.2976 46.9216 31.62 46.5527 31.8742 46.1404C32.8197 44.6276 32.6957 42.8668 31.9362 41.4935C31.5304 40.771 30.9625 40.1526 30.2772 39.6868C29.5919 39.2209 28.8079 38.9204 27.9868 38.8089C26.1888 38.5516 24.1986 39.1344 22.2735 40.6937C21.9541 40.9527 21.7507 41.3279 21.7079 41.7369C21.6652 42.1459 21.7867 42.5551 22.0457 42.8745C22.3047 43.194 22.6799 43.3974 23.0889 43.4401C23.4979 43.4829 23.9071 43.3614 24.2265 43.1024V43.1024Z" fill="black"/>
</svg>
