<svg width="63" height="62" viewBox="0 0 63 62" fill="none" xmlns="http://www.w3.org/2000/svg">
<path d="M56.6875 42.625H25.6875C25.1736 42.625 24.6808 42.8291 24.3175 43.1925C23.9541 43.5558 23.75 44.0486 23.75 44.5625C23.75 45.0764 23.9541 45.5692 24.3175 45.9325C24.6808 46.2959 25.1736 46.5 25.6875 46.5H44.4367C40.4668 50.2177 35.2358 52.2932 29.7969 52.3086C29.5296 52.3086 29.2583 52.3164 28.9871 52.3086C23.9672 52.1293 19.1687 50.1978 15.4245 46.8494C11.6803 43.5009 9.22692 38.9471 8.49027 33.9783C7.75361 29.0096 8.78021 23.9398 11.3918 19.6491C14.0035 15.3584 18.0352 12.1177 22.7871 10.4896C21.8196 14.6845 21.7865 19.0409 22.6902 23.25H26.6563C25.4435 18.3622 25.7064 13.2247 27.4119 8.48625C27.5248 8.19394 27.5662 7.87889 27.5326 7.56734C27.4991 7.25579 27.3916 6.95676 27.2191 6.69516C27.0466 6.43357 26.8141 6.21698 26.541 6.06345C26.2678 5.90991 25.9619 5.82387 25.6488 5.8125C25.535 5.81269 25.4216 5.82306 25.3097 5.8435C19.1419 6.94114 13.5982 10.2817 9.74594 15.222C5.8937 20.1623 4.00527 26.3531 4.44424 32.6024C4.88322 38.8518 7.61856 44.7178 12.1236 49.071C16.6287 53.4243 22.5849 55.9571 28.8456 56.1817C29.1634 56.1933 29.4811 56.1817 29.795 56.1817C33.6253 56.1802 37.4051 55.3078 40.8487 53.6305C44.2922 51.9532 47.3093 49.5149 49.6718 46.5H56.6875C57.2014 46.5 57.6942 46.2959 58.0575 45.9325C58.4209 45.5692 58.625 45.0764 58.625 44.5625C58.625 44.0486 58.4209 43.5558 58.0575 43.1925C57.6942 42.8291 57.2014 42.625 56.6875 42.625Z" fill="black"/>
<path d="M52.8125 38.75H33.4375C32.9236 38.75 32.4308 38.5459 32.0675 38.1825C31.7041 37.8192 31.5 37.3264 31.5 36.8125C31.5 36.2986 31.7041 35.8058 32.0675 35.4425C32.4308 35.0791 32.9236 34.875 33.4375 34.875H52.8125C53.3264 34.875 53.8192 35.0791 54.1825 35.4425C54.5459 35.8058 54.75 36.2986 54.75 36.8125C54.75 37.3264 54.5459 37.8192 54.1825 38.1825C53.8192 38.5459 53.3264 38.75 52.8125 38.75ZM48.9375 31H25.6875C25.1736 31 24.6808 30.7959 24.3175 30.4325C23.9541 30.0692 23.75 29.5764 23.75 29.0625C23.75 28.5486 23.9541 28.0558 24.3175 27.6925C24.6808 27.3291 25.1736 27.125 25.6875 27.125H48.9375C49.4514 27.125 49.9442 27.3291 50.3075 27.6925C50.6709 28.0558 50.875 28.5486 50.875 29.0625C50.875 29.5764 50.6709 30.0692 50.3075 30.4325C49.9442 30.7959 49.4514 31 48.9375 31Z" fill="black"/>
</svg>
