<svg width="62" height="62" viewBox="0 0 62 62" fill="none" xmlns="http://www.w3.org/2000/svg">
<path d="M20.3438 31C23.17 31 25.8804 29.8773 27.8789 27.8789C29.8773 25.8804 31 23.17 31 20.3438C31 17.5175 29.8773 14.8071 27.8789 12.8086C25.8804 10.8102 23.17 9.6875 20.3438 9.6875C17.5175 9.6875 14.8071 10.8102 12.8086 12.8086C10.8102 14.8071 9.6875 17.5175 9.6875 20.3438C9.6875 23.17 10.8102 25.8804 12.8086 27.8789C14.8071 29.8773 17.5175 31 20.3438 31ZM44.5625 31C46.6179 31 48.5892 30.1835 50.0426 28.7301C51.496 27.2767 52.3125 25.3054 52.3125 23.25C52.3125 21.1946 51.496 19.2233 50.0426 17.7699C48.5892 16.3165 46.6179 15.5 44.5625 15.5C42.5071 15.5 40.5358 16.3165 39.0824 17.7699C37.629 19.2233 36.8125 21.1946 36.8125 23.25C36.8125 25.3054 37.629 27.2767 39.0824 28.7301C40.5358 30.1835 42.5071 31 44.5625 31ZM9.6875 34.875C8.14593 34.875 6.6675 35.4874 5.57744 36.5774C4.48739 37.6675 3.875 39.1459 3.875 40.6875V40.9781C3.875 40.9781 3.875 52.3125 20.3438 52.3125C36.8125 52.3125 36.8125 40.9781 36.8125 40.9781V40.6875C36.8125 39.1459 36.2001 37.6675 35.1101 36.5774C34.02 35.4874 32.5416 34.875 31 34.875H9.6875ZM44.5625 48.4375C41.7415 48.4375 39.5095 48.0539 37.7406 47.4436C38.5776 46.0873 39.0581 44.7795 39.3293 43.7236C39.5271 42.9647 39.6523 42.1888 39.7033 41.4063C39.7071 41.3288 39.711 41.2591 39.711 41.199L39.7129 41.1176V40.6875C39.7163 38.5426 38.9262 36.4722 37.4945 34.875H53.4614C54.0738 34.8747 54.6802 34.9951 55.246 35.2293C55.8118 35.4634 56.3259 35.8068 56.759 36.2397C57.192 36.6726 57.5356 37.1866 57.77 37.7523C58.0044 38.318 58.125 38.9243 58.125 39.5366C58.125 39.5366 58.125 48.4375 44.5625 48.4375Z" fill="black"/>
</svg>
