<svg width="62" height="62" viewBox="0 0 62 62" fill="none" xmlns="http://www.w3.org/2000/svg">
<path d="M51.6667 23.25C48.4866 23.2484 45.4194 22.0706 43.0556 19.9433V24.1111H39.6111V17.7217L24.1111 9.78222V15.5H20.6667V9.07611L4.01279 15.965C3.84636 16.0303 3.7033 16.144 3.60201 16.2913C3.50072 16.4386 3.44585 16.6129 3.44446 16.7917V52.4417C3.44767 52.5919 3.48722 52.739 3.55973 52.8706C3.63223 53.0022 3.73554 53.1142 3.86079 53.1972C3.98605 53.2801 4.12954 53.3315 4.27898 53.3469C4.42842 53.3623 4.57937 53.3412 4.7189 53.2856L20.6667 46.7067V39.6111H24.1111V47.4128L39.6111 55.3522V48.2222H43.0556V54.7494L57.9183 50.0994C58.1031 50.0382 58.264 49.9204 58.3783 49.7628C58.4927 49.6053 58.5547 49.4158 58.5556 49.2211V21.2522C56.4943 22.556 54.1057 23.2487 51.6667 23.25V23.25ZM24.1111 36.1667H20.6667V29.2778H24.1111V36.1667ZM24.1111 25.8333H20.6667V18.9444H24.1111V25.8333ZM43.0556 44.7778H39.6111V37.8889H43.0556V44.7778ZM43.0556 34.4444H39.6111V27.5556H43.0556V34.4444Z" fill="black"/>
<path d="M51.6667 18.9444C56.4224 18.9444 60.2778 15.0891 60.2778 10.3333C60.2778 5.57755 56.4224 1.72222 51.6667 1.72222C46.9109 1.72222 43.0555 5.57755 43.0555 10.3333C43.0555 15.0891 46.9109 18.9444 51.6667 18.9444Z" fill="black"/>
</svg>
