<svg width="62" height="62" viewBox="0 0 62 62" fill="none" xmlns="http://www.w3.org/2000/svg">
<path d="M49.6 0C52.8887 0 56.0427 1.30642 58.3681 3.63188C60.6936 5.95733 62 9.11131 62 12.4V49.6C62 52.8887 60.6936 56.0427 58.3681 58.3681C56.0427 60.6936 52.8887 62 49.6 62H12.4C9.11131 62 5.95733 60.6936 3.63188 58.3681C1.30642 56.0427 0 52.8887 0 49.6V12.4C0 9.11131 1.30642 5.95733 3.63188 3.63188C5.95733 1.30642 9.11131 0 12.4 0L49.6 0ZM49.6 6.2H12.4C10.8358 6.1995 9.32924 6.79026 8.1823 7.85384C7.03536 8.91742 6.33281 10.3752 6.2155 11.935L6.2 12.4V49.6C6.1995 51.1642 6.79026 52.6708 7.85384 53.8177C8.91742 54.9646 10.3752 55.6672 11.935 55.7845L12.4 55.8H49.6C51.1642 55.8005 52.6708 55.2097 53.8177 54.1462C54.9646 53.0826 55.6672 51.6248 55.7845 50.065L55.8 49.6V12.4C55.8005 10.8358 55.2097 9.32924 54.1462 8.1823C53.0826 7.03536 51.6248 6.33281 50.065 6.2155L49.6 6.2ZM46.5 40.3C48.1443 40.3 49.7213 40.9532 50.8841 42.1159C52.0468 43.2787 52.7 44.8557 52.7 46.5C52.7 48.1443 52.0468 49.7213 50.8841 50.8841C49.7213 52.0468 48.1443 52.7 46.5 52.7C44.8557 52.7 43.2787 52.0468 42.1159 50.8841C40.9532 49.7213 40.3 48.1443 40.3 46.5C40.3 44.8557 40.9532 43.2787 42.1159 42.1159C43.2787 40.9532 44.8557 40.3 46.5 40.3ZM31 24.8C32.6443 24.8 34.2213 25.4532 35.3841 26.6159C36.5468 27.7787 37.2 29.3557 37.2 31C37.2 32.6443 36.5468 34.2213 35.3841 35.3841C34.2213 36.5468 32.6443 37.2 31 37.2C29.3557 37.2 27.7787 36.5468 26.6159 35.3841C25.4532 34.2213 24.8 32.6443 24.8 31C24.8 29.3557 25.4532 27.7787 26.6159 26.6159C27.7787 25.4532 29.3557 24.8 31 24.8ZM15.5 9.3C17.1443 9.3 18.7213 9.95321 19.8841 11.1159C21.0468 12.2787 21.7 13.8557 21.7 15.5C21.7 17.1443 21.0468 18.7213 19.8841 19.8841C18.7213 21.0468 17.1443 21.7 15.5 21.7C13.8557 21.7 12.2787 21.0468 11.1159 19.8841C9.95321 18.7213 9.3 17.1443 9.3 15.5C9.3 13.8557 9.95321 12.2787 11.1159 11.1159C12.2787 9.95321 13.8557 9.3 15.5 9.3Z" fill="#F2F2F2"/>
</svg>
