<svg width="78" height="62" viewBox="0 0 78 62" fill="none" xmlns="http://www.w3.org/2000/svg">
<g clip-path="url(#clip0_11_19)">
<path d="M19.875 23.25C10.0543 23.25 2.0137 30.334 0.51214 39.5613C0.415265 40.1426 0.911749 40.6875 1.51722 40.6875H38.245C38.8504 40.6875 39.3469 40.1426 39.25 39.5613C37.7364 30.334 29.6957 23.25 19.875 23.25ZM38.2328 44.5625H1.51722C0.911749 44.5625 0.415265 45.1074 0.51214 45.6887C2.0137 54.916 10.0543 62 19.875 62C29.6957 62 37.7364 54.916 39.2379 45.6887C39.3348 45.1074 38.8383 44.5625 38.2328 44.5625V44.5625ZM72.3571 5.64297C65.5153 -1.19883 54.8953 -1.79219 47.3028 3.70547C46.8184 4.05664 46.7821 4.7832 47.2059 5.19492L72.793 30.7941C73.2168 31.218 73.9434 31.1816 74.2824 30.6973C79.7922 23.1047 79.1989 12.4848 72.3571 5.64297V5.64297ZM44.4571 7.95586C44.0332 7.53203 43.3067 7.56836 42.9676 8.05273C37.47 15.6453 38.0633 26.2652 44.893 33.107C51.7348 39.9488 62.3547 40.5422 69.9473 35.0324C70.4317 34.6812 70.468 33.9547 70.0442 33.543L44.4571 7.95586Z" fill="black"/>
</g>
<defs>
<clipPath id="clip0_11_19">
<rect width="77.5" height="62" fill="white" transform="translate(0.5)"/>
</clipPath>
</defs>
</svg>
