<svg width="62" height="62" viewBox="0 0 62 62" fill="none" xmlns="http://www.w3.org/2000/svg">
<path d="M14.2161 11.9531L14.2083 17.4375V44.5728C14.2083 46.7995 15.0929 48.9351 16.6674 50.5096C18.2419 52.0841 20.3774 52.9687 22.6042 52.9687H44.8622C44.4611 54.102 43.7186 55.0831 42.7369 55.7771C41.7552 56.471 40.5825 56.8437 39.3803 56.8437H22.6042C19.3497 56.8437 16.2286 55.5509 13.9274 53.2496C11.6261 50.9484 10.3333 47.8273 10.3333 44.5728V17.4375C10.3333 14.9058 11.9531 12.7488 14.2161 11.9531ZM45.8542 5.16667C46.6175 5.16667 47.3733 5.31702 48.0785 5.60912C48.7837 5.90123 49.4245 6.32937 49.9642 6.86911C50.504 7.40885 50.9321 8.04962 51.2242 8.75482C51.5163 9.46003 51.6667 10.2159 51.6667 10.9792V44.5625C51.6667 45.3258 51.5163 46.0816 51.2242 46.7869C50.9321 47.4921 50.504 48.1328 49.9642 48.6726C49.4245 49.2123 48.7837 49.6404 48.0785 49.9326C47.3733 50.2247 46.6175 50.375 45.8542 50.375H22.6042C21.0626 50.375 19.5842 49.7626 18.4941 48.6726C17.404 47.5825 16.7917 46.1041 16.7917 44.5625V10.9792C16.7917 9.4376 17.404 7.95917 18.4941 6.86911C19.5842 5.77906 21.0626 5.16667 22.6042 5.16667H45.8542Z" fill="black"/>
</svg>
