<svg width="62" height="62" viewBox="0 0 62 62" fill="none" xmlns="http://www.w3.org/2000/svg">
<path d="M34.6399 6.49191C32.3056 5.54548 29.6944 5.54548 27.3601 6.49191L21.7026 8.78591L46.4819 18.4217L55.1981 15.0557C54.8409 14.7591 54.44 14.5195 54.0098 14.3452L34.6399 6.49191ZM56.8333 18.5767L32.9375 27.8096V56.0273C33.5162 55.9111 34.0845 55.738 34.6399 55.5132L54.0098 47.6599C54.8441 47.322 55.5585 46.7426 56.0616 45.9961C56.5646 45.2496 56.8333 44.3699 56.8333 43.4697V18.5793V18.5767ZM29.0625 56.0273V27.8096L5.16667 18.5767V43.4723C5.16718 44.3721 5.43615 45.2512 5.93915 45.9972C6.44216 46.7432 7.15633 47.3221 7.99025 47.6599L27.3601 55.5132C27.9155 55.738 28.4838 55.9085 29.0625 56.0299V56.0273ZM6.80192 15.0557L31 24.4047L41.1189 20.4936L16.4662 10.9094L7.99025 14.3452C7.55108 14.5235 7.15325 14.7637 6.80192 15.0557Z" fill="black"/>
</svg>
