<svg width="62" height="62" viewBox="0 0 62 62" fill="none" xmlns="http://www.w3.org/2000/svg">
<path d="M10.3334 10.3333V51.6667C10.3334 53.0369 10.8777 54.3511 11.8467 55.32C12.8156 56.289 14.1298 56.8333 15.5 56.8333H46.5C47.8703 56.8333 49.1845 56.289 50.1534 55.32C51.1224 54.3511 51.6667 53.0369 51.6667 51.6667V21.5502C51.6666 20.8619 51.529 20.1805 51.2619 19.5461C50.9949 18.9117 50.6038 18.3371 50.1115 17.856L38.6415 6.63916C37.6763 5.69536 36.38 5.16683 35.03 5.16666H15.5C14.1298 5.16666 12.8156 5.71101 11.8467 6.67995C10.8777 7.64888 10.3334 8.96305 10.3334 10.3333V10.3333Z" stroke="black" stroke-width="5.16667" stroke-linecap="round" stroke-linejoin="round"/>
<path d="M36.1667 5.16666V15.5C36.1667 16.8703 36.7111 18.1844 37.68 19.1534C38.649 20.1223 39.9631 20.6667 41.3334 20.6667H51.6667" stroke="black" stroke-width="5.16667" stroke-linejoin="round"/>
</svg>
