<svg width="62" height="62" viewBox="0 0 62 62" fill="none" xmlns="http://www.w3.org/2000/svg">
<path d="M19.9286 29.8929V21.0357H42.0714V29.8929H19.9286ZM6.64286 48.1607C6.64286 50.0693 7.40105 51.8998 8.75065 53.2494C10.1002 54.5989 11.9307 55.3571 13.8393 55.3571H48.1607C50.0693 55.3571 51.8998 54.5989 53.2494 53.2494C54.599 51.8998 55.3571 50.0693 55.3571 48.1607V13.8393C55.3571 11.9307 54.599 10.1002 53.2494 8.75064C51.8998 7.40105 50.0693 6.64285 48.1607 6.64285H13.8393C11.9307 6.64285 10.1002 7.40105 8.75065 8.75064C7.40105 10.1002 6.64286 11.9307 6.64286 13.8393V48.1607ZM18.2679 17.7143H43.7321C44.1726 17.7143 44.595 17.8893 44.9065 18.2007C45.2179 18.5121 45.3929 18.9345 45.3929 19.375V31.5536C45.3929 31.994 45.2179 32.4164 44.9065 32.7279C44.595 33.0393 44.1726 33.2143 43.7321 33.2143H18.2679C17.8274 33.2143 17.405 33.0393 17.0936 32.7279C16.7821 32.4164 16.6071 31.994 16.6071 31.5536V19.375C16.6071 18.9345 16.7821 18.5121 17.0936 18.2007C17.405 17.8893 17.8274 17.7143 18.2679 17.7143Z" fill="black"/>
</svg>
