<svg width="78" height="62" viewBox="0 0 78 62" fill="none" xmlns="http://www.w3.org/2000/svg">
<g clip-path="url(#clip0_11_14)">
<path d="M10.293 30.334C-0.242134 51.4285 0.109038 50.4234 0.109038 52.3125C0.000416679 57.6527 6.93267 62 15.5001 62C24.0674 62 31.0001 57.6552 31.0001 52.4215C31.0001 50.4695 31.1666 51.3617 20.6926 30.443C18.5637 26.0715 12.4485 26.0473 10.293 30.334V30.334ZM6.77646 50.375L15.4928 33.0465L24.2297 50.375H6.77646ZM67.195 14.834C65.0613 10.5654 58.9509 10.5509 56.8015 14.834C46.2663 35.9285 46.5037 34.9234 46.5037 36.8125C46.5037 42.1552 53.4363 46.391 62.0037 46.391C70.5711 46.391 77.3947 42.0474 77.3947 36.8125C77.3911 34.8629 77.6696 35.759 67.195 14.834ZM53.1723 34.875L61.8959 17.5465L70.6244 34.875H53.1723ZM59.9536 54.25H42.6251V18.5637C45.1474 17.4597 47.0716 15.3026 47.9265 12.6579L63.2207 7.55867C65.2514 6.88128 66.3485 4.68633 65.6704 2.6568C64.9949 0.630901 62.8102 -0.474685 60.7685 0.207073L47.0486 4.77957C45.3606 1.93508 42.2908 0.00726787 38.744 0.00726787C33.3941 0.00726787 29.1655 4.34485 29.1655 9.69477C29.1655 10.0533 29.2332 10.3936 29.271 10.742L14.277 15.7059C12.2426 16.384 11.1467 18.5758 11.8236 20.598C12.3648 22.2219 13.8762 23.2476 15.5001 23.2476C15.905 23.2476 16.3196 23.1847 16.7267 23.0485L33.1555 17.5707C33.6883 17.9582 34.1606 18.2973 34.8751 18.5637V60.0625C34.8751 61.1281 35.7469 62 36.8126 62H63.8286C64.8988 62 65.7661 61.1325 65.7661 60.1715C65.7661 56.8535 63.2715 54.25 59.9536 54.25Z" fill="black"/>
</g>
<defs>
<clipPath id="clip0_11_14">
<rect width="77.5" height="62" fill="white"/>
</clipPath>
</defs>
</svg>
