<svg width="62" height="62" viewBox="0 0 62 62" fill="none" xmlns="http://www.w3.org/2000/svg">
<path d="M30.5522 27.5556L29.6566 31H32.4638L31.5511 27.5556H30.5522Z" fill="black"/>
<path d="M20.5633 31H25.1961L26.1088 27.5556H19.6505L20.5633 31V31Z" fill="black"/>
<path d="M22.8883 39.7833L24.2833 34.4444H21.4761L22.8883 39.7833Z" fill="black"/>
<path d="M36.9245 31H41.5573L42.4701 27.5556H36.0117L36.9245 31V31Z" fill="black"/>
<path d="M39.2322 39.7833L40.6444 34.4444H37.8372L39.2322 39.7833Z" fill="black"/>
<path d="M31 3.44444C25.5501 3.44444 20.2225 5.06055 15.691 8.08839C11.1595 11.1162 7.62763 15.4198 5.54201 20.4549C3.4564 25.4901 2.91071 31.0306 3.97394 36.3758C5.03718 41.7211 7.66159 46.631 11.5153 50.4847C15.369 54.3384 20.279 56.9628 25.6242 58.0261C30.9695 59.0893 36.51 58.5436 41.5451 56.458C46.5802 54.3724 50.8838 50.8405 53.9116 46.309C56.9395 41.7776 58.5556 36.45 58.5556 31C58.5556 23.6918 55.6524 16.6829 50.4847 11.5153C45.3171 6.34761 38.3082 3.44444 31 3.44444V3.44444ZM49.9445 34.4444H45.105L41.3334 48.7733C41.2137 49.235 40.9441 49.6438 40.5669 49.9357C40.1898 50.2275 39.7264 50.3859 39.2495 50.3859C38.7726 50.3859 38.3092 50.2275 37.932 49.9357C37.5548 49.6438 37.2853 49.235 37.1656 48.7733L33.3767 34.4444H28.7439L24.9722 48.7733C24.8526 49.235 24.583 49.6438 24.2058 49.9357C23.8287 50.2275 23.3653 50.3859 22.8884 50.3859C22.4115 50.3859 21.9481 50.2275 21.5709 49.9357C21.1937 49.6438 20.9241 49.235 20.8045 48.7733L17.0156 34.4444H12.0556C11.5988 34.4444 11.1608 34.263 10.8378 33.94C10.5148 33.617 10.3334 33.179 10.3334 32.7222C10.3334 32.2655 10.5148 31.8274 10.8378 31.5044C11.1608 31.1814 11.5988 31 12.0556 31H16.1028L15.19 27.5556H12.0556C11.5988 27.5556 11.1608 27.3741 10.8378 27.0511C10.5148 26.7281 10.3334 26.2901 10.3334 25.8333C10.3334 25.3766 10.5148 24.9385 10.8378 24.6155C11.1608 24.2926 11.5988 24.1111 12.0556 24.1111H14.2945L12.5722 17.7733C12.4261 17.2206 12.5055 16.6325 12.7929 16.1384C13.0804 15.6442 13.5523 15.2845 14.105 15.1383C14.6577 14.9922 15.2458 15.0715 15.74 15.359C16.2341 15.6464 16.5939 16.1184 16.74 16.6711L18.7378 24.1111H27.0045L28.9678 16.6711C29.0875 16.2095 29.3571 15.8006 29.7342 15.5088C30.1114 15.2169 30.5748 15.0586 31.0517 15.0586C31.5286 15.0586 31.992 15.2169 32.3692 15.5088C32.7463 15.8006 33.0159 16.2095 33.1356 16.6711L35.0989 24.1111H43.3656L45.3289 16.6711C45.4751 16.1184 45.8348 15.6464 46.329 15.359C46.8231 15.0715 47.4112 14.9922 47.9639 15.1383C48.5166 15.2845 48.9886 15.6442 49.276 16.1384C49.5635 16.6325 49.6429 17.2206 49.4967 17.7733L47.7745 24.1111H49.9445C50.4012 24.1111 50.8393 24.2926 51.1623 24.6155C51.4852 24.9385 51.6667 25.3766 51.6667 25.8333C51.6667 26.2901 51.4852 26.7281 51.1623 27.0511C50.8393 27.3741 50.4012 27.5556 49.9445 27.5556H46.9134L46.0006 31H49.9445C50.4012 31 50.8393 31.1814 51.1623 31.5044C51.4852 31.8274 51.6667 32.2655 51.6667 32.7222C51.6667 33.179 51.4852 33.617 51.1623 33.94C50.8393 34.263 50.4012 34.4444 49.9445 34.4444Z" fill="black"/>
</svg>
