<svg width="62" height="62" viewBox="0 0 62 62" fill="none" xmlns="http://www.w3.org/2000/svg">
<path d="M54.25 15.8229C54.25 13.6818 53.3995 11.6285 51.8855 10.1145C50.3715 8.60054 48.3182 7.75 46.1771 7.75H15.8229C13.6818 7.75 11.6285 8.60054 10.1145 10.1145C8.60054 11.6285 7.75 13.6818 7.75 15.8229V18.0833H54.25V15.8229ZM54.25 21.3125V46.1771C54.25 48.3182 53.3995 50.3715 51.8855 51.8855C50.3715 53.3995 48.3182 54.25 46.1771 54.25H15.8229C13.6818 54.25 11.6285 53.3995 10.1145 51.8855C8.60054 50.3715 7.75 48.3182 7.75 46.1771V21.3125H54.25ZM38.75 30.3542C38.75 31.2106 39.0902 32.0319 39.6958 32.6375C40.3014 33.2431 41.1227 33.5833 41.9792 33.5833C42.8356 33.5833 43.6569 33.2431 44.2625 32.6375C44.8681 32.0319 45.2083 31.2106 45.2083 30.3542C45.2083 29.4977 44.8681 28.6764 44.2625 28.0708C43.6569 27.4652 42.8356 27.125 41.9792 27.125C41.1227 27.125 40.3014 27.4652 39.6958 28.0708C39.0902 28.6764 38.75 29.4977 38.75 30.3542ZM31 33.5833C31.8564 33.5833 32.6778 33.2431 33.2834 32.6375C33.889 32.0319 34.2292 31.2106 34.2292 30.3542C34.2292 29.4977 33.889 28.6764 33.2834 28.0708C32.6778 27.4652 31.8564 27.125 31 27.125C30.1436 27.125 29.3222 27.4652 28.7166 28.0708C28.111 28.6764 27.7708 29.4977 27.7708 30.3542C27.7708 31.2106 28.111 32.0319 28.7166 32.6375C29.3222 33.2431 30.1436 33.5833 31 33.5833ZM16.7917 30.3542C16.7917 31.2106 17.1319 32.0319 17.7375 32.6375C18.3431 33.2431 19.1644 33.5833 20.0208 33.5833C20.8773 33.5833 21.6986 33.2431 22.3042 32.6375C22.9098 32.0319 23.25 31.2106 23.25 30.3542C23.25 29.4977 22.9098 28.6764 22.3042 28.0708C21.6986 27.4652 20.8773 27.125 20.0208 27.125C19.1644 27.125 18.3431 27.4652 17.7375 28.0708C17.1319 28.6764 16.7917 29.4977 16.7917 30.3542ZM41.9792 43.9167C42.8356 43.9167 43.6569 43.5765 44.2625 42.9709C44.8681 42.3653 45.2083 41.5439 45.2083 40.6875C45.2083 39.8311 44.8681 39.0097 44.2625 38.4041C43.6569 37.7985 42.8356 37.4583 41.9792 37.4583C41.1227 37.4583 40.3014 37.7985 39.6958 38.4041C39.0902 39.0097 38.75 39.8311 38.75 40.6875C38.75 41.5439 39.0902 42.3653 39.6958 42.9709C40.3014 43.5765 41.1227 43.9167 41.9792 43.9167ZM27.7708 40.6875C27.7708 41.5439 28.111 42.3653 28.7166 42.9709C29.3222 43.5765 30.1436 43.9167 31 43.9167C31.8564 43.9167 32.6778 43.5765 33.2834 42.9709C33.889 42.3653 34.2292 41.5439 34.2292 40.6875C34.2292 39.8311 33.889 39.0097 33.2834 38.4041C32.6778 37.7985 31.8564 37.4583 31 37.4583C30.1436 37.4583 29.3222 37.7985 28.7166 38.4041C28.111 39.0097 27.7708 39.8311 27.7708 40.6875Z" fill="black"/>
</svg>
