<svg width="62" height="62" viewBox="0 0 62 62" fill="none" xmlns="http://www.w3.org/2000/svg">
<mask id="mask0_2_112" style="mask-type:alpha" maskUnits="userSpaceOnUse" x="3" y="3" width="54" height="54">
<path d="M24.5417 25.8333C25.729 25.8333 26.9048 25.5995 28.0018 25.1451C29.0987 24.6907 30.0955 24.0247 30.9351 23.1851C31.7747 22.3455 32.4407 21.3487 32.8951 20.2518C33.3495 19.1548 33.5833 17.979 33.5833 16.7917C33.5833 15.6043 33.3495 14.4286 32.8951 13.3316C32.4407 12.2346 31.7747 11.2378 30.9351 10.3982C30.0955 9.55865 29.0987 8.89264 28.0018 8.43826C26.9048 7.98387 25.729 7.75 24.5417 7.75C22.1437 7.75 19.8439 8.7026 18.1482 10.3982C16.4526 12.0939 15.5 14.3937 15.5 16.7917C15.5 19.1897 16.4526 21.4894 18.1482 23.1851C19.8439 24.8807 22.1437 25.8333 24.5417 25.8333Z" fill="white" stroke="white" stroke-width="4" stroke-linecap="round" stroke-linejoin="round"/>
<path d="M51.6667 5.16666C51.6667 5.16666 57.4792 15.6292 51.6667 28.4167M42.625 10.3333C42.625 10.3333 45.5312 16.1458 42.625 23.25V10.3333Z" stroke="white" stroke-width="4" stroke-linecap="round" stroke-linejoin="round"/>
<path d="M5.16669 52.7V54.25H43.9167V52.7C43.9167 46.9133 43.9167 44.02 42.7904 41.8087C41.7997 39.8644 40.2189 38.2837 38.2747 37.293C36.0634 36.1667 33.17 36.1667 27.3834 36.1667H21.7C15.9134 36.1667 13.02 36.1667 10.8087 37.293C8.86443 38.2837 7.2837 39.8644 6.29302 41.8087C5.16669 44.02 5.16669 46.9133 5.16669 52.7Z" fill="white" stroke="white" stroke-width="4" stroke-linecap="round" stroke-linejoin="round"/>
</mask>
<g mask="url(#mask0_2_112)">
<path d="M0 0H62V62H0V0Z" fill="#F8F8F8"/>
</g>
</svg>
