<svg width="62" height="62" viewBox="0 0 62 62" fill="none" xmlns="http://www.w3.org/2000/svg">
<g clip-path="url(#clip0_2_144)">
<path d="M60.5457 21.3125H53.2958L51.2808 16.275C49.2101 11.0958 44.2682 7.75 38.6895 7.75H23.3105C17.733 7.75 12.7899 11.0958 10.718 16.275L8.70301 21.3125H1.45434C0.508596 21.3125 -0.185271 22.2013 0.0448068 23.118L0.771369 26.0243C0.932424 26.6709 1.51367 27.125 2.1809 27.125H4.61125C2.98496 28.5454 1.9375 30.6101 1.9375 32.9375V38.75C1.9375 40.702 2.68344 42.4639 3.875 43.8275V50.375C3.875 52.5147 5.61028 54.25 7.75 54.25H11.625C13.7647 54.25 15.5 52.5147 15.5 50.375V46.5H46.5V50.375C46.5 52.5147 48.2353 54.25 50.375 54.25H54.25C56.3897 54.25 58.125 52.5147 58.125 50.375V43.8275C59.3166 42.4652 60.0625 40.7032 60.0625 38.75V32.9375C60.0625 30.6101 59.015 28.5454 57.39 27.125H59.8203C60.4875 27.125 61.0688 26.6709 61.2298 26.0243L61.9564 23.118C62.1853 22.2013 61.4914 21.3125 60.5457 21.3125ZM17.9134 19.1534C18.7962 16.9471 20.9335 15.5 23.3105 15.5H38.6895C41.0665 15.5 43.2038 16.9471 44.0866 19.1534L46.5 25.1875H15.5L17.9134 19.1534ZM11.625 38.7258C9.3 38.7258 7.75 37.1806 7.75 34.8629C7.75 32.5452 9.3 31 11.625 31C13.95 31 17.4375 34.4766 17.4375 36.7943C17.4375 39.1121 13.95 38.7258 11.625 38.7258ZM50.375 38.7258C48.05 38.7258 44.5625 39.1121 44.5625 36.7943C44.5625 34.4766 48.05 31 50.375 31C52.7 31 54.25 32.5452 54.25 34.8629C54.25 37.1806 52.7 38.7258 50.375 38.7258Z" fill="black"/>
</g>
<defs>
<clipPath id="clip0_2_144">
<rect width="62" height="62" fill="white"/>
</clipPath>
</defs>
</svg>
