<svg width="62" height="62" viewBox="0 0 62 62" fill="none" xmlns="http://www.w3.org/2000/svg">
<path d="M48.1607 6.64285C50.0693 6.64285 51.8998 7.40105 53.2494 8.75064C54.5989 10.1002 55.3571 11.9307 55.3571 13.8393V48.1607C55.3571 50.0693 54.5989 51.8998 53.2494 53.2494C51.8998 54.5989 50.0693 55.3571 48.1607 55.3571H13.8393C11.9307 55.3571 10.1002 54.5989 8.75064 53.2494C7.40105 51.8998 6.64285 50.0693 6.64285 48.1607V13.8393C6.64285 11.9307 7.40105 10.1002 8.75064 8.75064C10.1002 7.40105 11.9307 6.64285 13.8393 6.64285H48.1607ZM42.0714 26.5714H19.9286C19.3862 26.5715 18.8627 26.7706 18.4575 27.131C18.0522 27.4914 17.7932 27.988 17.7298 28.5266L17.7143 28.7857V42.0714C17.7144 42.6138 17.9135 43.1372 18.2739 43.5425C18.6343 43.9478 19.1309 44.2068 19.6695 44.2702L19.9286 44.2857H42.0714C42.6138 44.2856 43.1372 44.0865 43.5425 43.7261C43.9478 43.3657 44.2068 42.8691 44.2702 42.3305L44.2857 42.0714V28.7857C44.2856 28.2434 44.0865 27.7199 43.7261 27.3146C43.3657 26.9093 42.8691 26.6504 42.3305 26.5869L42.0714 26.5714ZM40.9643 29.8929V40.9643H21.0357V29.8929H40.9643ZM42.0714 17.7143H19.9286L19.7027 17.7298C19.3052 17.7845 18.941 17.9812 18.6773 18.2837C18.4136 18.5861 18.2684 18.9738 18.2684 19.375C18.2684 19.7762 18.4136 20.1639 18.6773 20.4663C18.941 20.7688 19.3052 20.9655 19.7027 21.0202L19.9286 21.0357H42.0714L42.2973 21.0202C42.6948 20.9655 43.059 20.7688 43.3227 20.4663C43.5864 20.1639 43.7316 19.7762 43.7316 19.375C43.7316 18.9738 43.5864 18.5861 43.3227 18.2837C43.059 17.9812 42.6948 17.7845 42.2973 17.7298L42.0714 17.7143Z" fill="black"/>
</svg>
