<svg width="70" height="62" viewBox="0 0 70 62" fill="none" xmlns="http://www.w3.org/2000/svg">
<g clip-path="url(#clip0_2_142)">
<path d="M69.7258 30.9395C69.7258 33.1191 67.9094 34.8266 65.8508 34.8266H61.9758L62.0605 54.2137C62.0605 54.5527 62.0363 54.8676 62 55.1945V57.1562C62 59.8324 59.8324 62 57.1562 62H55.2188C55.0855 62 54.9523 61.891 54.8191 61.9879C54.6496 61.891 54.4801 62 54.3105 62H47.4688C44.7926 62 42.625 59.8324 42.625 57.1562V46.5C42.625 44.3566 40.8934 42.625 38.75 42.625H31C28.8566 42.625 27.125 44.3566 27.125 46.5V57.1562C27.125 59.8324 24.9574 62 22.2812 62H15.5121C15.3305 62 15.1488 61.9879 14.9672 61.9758C14.8219 61.9879 14.6766 62 14.5312 62H12.5938C9.91879 62 7.75 59.8324 7.75 57.1562V43.5938C7.75 43.4848 7.75363 43.3637 7.7609 43.2547V34.8266H3.88105C1.69773 34.8266 0 33.1191 0 30.9395C0 29.8496 0.363766 28.8809 1.21215 28.0332L32.2594 0.970687C33.107 0.121336 34.0758 0 34.9234 0C35.7711 0 36.7398 0.242672 37.4785 0.849352L68.3937 28.0332C69.3625 28.8809 69.859 29.8496 69.7258 30.9395Z" fill="black"/>
</g>
<defs>
<clipPath id="clip0_2_142">
<rect width="69.75" height="62" fill="white"/>
</clipPath>
</defs>
</svg>
