<svg width="62" height="62" viewBox="0 0 62 62" fill="none" xmlns="http://www.w3.org/2000/svg">
<path d="M5.8125 14.5312C5.8125 12.2189 6.73108 10.0012 8.36616 8.36616C10.0012 6.73108 12.2189 5.8125 14.5312 5.8125H47.4688C49.7811 5.8125 51.9988 6.73108 53.6338 8.36616C55.2689 10.0012 56.1875 12.2189 56.1875 14.5312V47.4688C56.1875 49.7811 55.2689 51.9988 53.6338 53.6338C51.9988 55.2689 49.7811 56.1875 47.4688 56.1875H14.5312C12.2189 56.1875 10.0012 55.2689 8.36616 53.6338C6.73108 51.9988 5.8125 49.7811 5.8125 47.4688V14.5312ZM23.25 24.2188C23.25 23.448 22.9438 22.7087 22.3988 22.1637C21.8538 21.6187 21.1145 21.3125 20.3438 21.3125C19.573 21.3125 18.8337 21.6187 18.2887 22.1637C17.7437 22.7087 17.4375 23.448 17.4375 24.2188C17.4375 24.9895 17.7437 25.7288 18.2887 26.2738C18.8337 26.8188 19.573 27.125 20.3438 27.125C21.1145 27.125 21.8538 26.8188 22.3988 26.2738C22.9438 25.7288 23.25 24.9895 23.25 24.2188ZM20.3438 38.75C21.1145 38.75 21.8538 38.4438 22.3988 37.8988C22.9438 37.3538 23.25 36.6145 23.25 35.8438C23.25 35.073 22.9438 34.3337 22.3988 33.7887C21.8538 33.2437 21.1145 32.9375 20.3438 32.9375C19.573 32.9375 18.8337 33.2437 18.2887 33.7887C17.7437 34.3337 17.4375 35.073 17.4375 35.8438C17.4375 36.6145 17.7437 37.3538 18.2887 37.8988C18.8337 38.4438 19.573 38.75 20.3438 38.75ZM31 38.75C31.7708 38.75 32.51 38.4438 33.055 37.8988C33.6001 37.3538 33.9062 36.6145 33.9062 35.8438C33.9062 35.073 33.6001 34.3337 33.055 33.7887C32.51 33.2437 31.7708 32.9375 31 32.9375C30.2292 32.9375 29.49 33.2437 28.945 33.7887C28.3999 34.3337 28.0938 35.073 28.0938 35.8438C28.0938 36.6145 28.3999 37.3538 28.945 37.8988C29.49 38.4438 30.2292 38.75 31 38.75ZM31 27.125C31.3817 27.125 31.7596 27.0498 32.1122 26.9038C32.4648 26.7577 32.7852 26.5436 33.055 26.2738C33.3249 26.0039 33.539 25.6835 33.685 25.3309C33.8311 24.9783 33.9062 24.6004 33.9062 24.2188C33.9062 23.8371 33.8311 23.4592 33.685 23.1066C33.539 22.754 33.3249 22.4336 33.055 22.1637C32.7852 21.8939 32.4648 21.6798 32.1122 21.5337C31.7596 21.3877 31.3817 21.3125 31 21.3125C30.2292 21.3125 29.49 21.6187 28.945 22.1637C28.3999 22.7087 28.0938 23.448 28.0938 24.2188C28.0938 24.9895 28.3999 25.7288 28.945 26.2738C29.49 26.8188 30.2292 27.125 31 27.125ZM41.6562 27.125C42.0379 27.125 42.4158 27.0498 42.7684 26.9038C43.121 26.7577 43.4414 26.5436 43.7113 26.2738C43.9811 26.0039 44.1952 25.6835 44.3413 25.3309C44.4873 24.9783 44.5625 24.6004 44.5625 24.2188C44.5625 23.8371 44.4873 23.4592 44.3413 23.1066C44.1952 22.754 43.9811 22.4336 43.7113 22.1637C43.4414 21.8939 43.121 21.6798 42.7684 21.5337C42.4158 21.3877 42.0379 21.3125 41.6562 21.3125C40.8855 21.3125 40.1463 21.6187 39.6012 22.1637C39.0562 22.7087 38.75 23.448 38.75 24.2188C38.75 24.9895 39.0562 25.7288 39.6012 26.2738C40.1463 26.8188 40.8855 27.125 41.6562 27.125Z" fill="black"/>
</svg>
